<?xml version="1.0" encoding="UTF-8"?>
<svg version="1.1" xmlns="http://www.w3.org/2000/svg" width="177" height="207">
<path d="M0 0 C1.34354553 -0.00639748 1.34354553 -0.00639748 2.7142334 -0.01292419 C3.689384 -0.01247101 4.66453461 -0.01201782 5.66923523 -0.0115509 C6.70220734 -0.01490952 7.73517944 -0.01826813 8.79945374 -0.02172852 C12.21789245 -0.03123549 15.63628216 -0.03318157 19.05473328 -0.03425598 C21.43121359 -0.03746895 23.80769369 -0.04083306 26.18417358 -0.04434204 C31.16829385 -0.05033283 36.15239677 -0.05218201 41.13652039 -0.05158997 C47.51875224 -0.0514884 53.90087272 -0.06513556 60.28307819 -0.08236217 C65.1927542 -0.09348898 70.10240336 -0.09550895 75.01209068 -0.09498024 C77.36477733 -0.09615952 79.7174647 -0.10057837 82.07013893 -0.10831261 C85.36366666 -0.11812518 88.65695351 -0.1152292 91.95048523 -0.10920715 C93.4041021 -0.11763641 93.4041021 -0.11763641 94.88708496 -0.12623596 C100.6857177 -0.09933542 106.53847559 -0.07195926 111.37919617 3.52848816 C115.23020228 8.2168212 117.19525843 12.79125721 118.94145203 18.57121277 C119.23455261 19.48443298 119.5276532 20.3976532 119.82963562 21.33854675 C121.35358646 26.14971419 122.74978477 30.98331048 124.04692078 35.86027527 C127.82680987 49.91152494 133.08247302 62.63250282 139.41801453 75.68058777 C149.5334402 96.57814835 149.5334402 96.57814835 147.50395203 104.13371277 C140.91688438 116.29756161 126.83547517 126.41315409 116.19145203 134.91886902 C112.07491913 138.31141866 108.1923539 141.94612723 104.28129578 145.57121277 C101.39008312 148.23877325 98.44791941 150.83431884 95.47270203 153.40715027 C94.06134993 154.64488365 92.6673742 155.90253957 91.28520203 157.17277527 C63.8573834 182.37430992 63.8573834 182.37430992 52.06645203 183.44621277 C44.13087168 182.75010923 39.43730592 177.97445139 34.50395203 172.13371277 C4.35947009 131.4488461 -12.33157711 82.67517404 -19.30854797 32.94621277 C-19.51302551 31.54798279 -19.51302551 31.54798279 -19.72163391 30.12150574 C-20.67672301 22.83797013 -21.17143631 15.54892744 -17.87104797 8.82121277 C-12.71938345 2.99169765 -7.84938892 0.01694546 0 0 Z " fill="#D9D9D9" transform="translate(22.496047973632813,13.866287231445313)"/>
<path d="M0 0 C-1.41468311 0.96125903 -2.8318364 1.91888325 -4.25 2.875 C-5.03890625 3.40867187 -5.8278125 3.94234375 -6.640625 4.4921875 C-8.71555692 5.81822015 -10.77614972 6.94928175 -13 8 C-11.68818459 4.06455377 -9.04041273 2.25061837 -5.8515625 -0.14453125 C-3.50485148 -1.22877115 -2.38346137 -0.85573613 0 0 Z " fill="#EDEDED" transform="translate(18,16)"/>
<path d="M0 0 C2 1 2 1 2 1 Z " fill="#EBEBEB" transform="translate(108,206)"/>
</svg>
