<?xml version="1.0" encoding="UTF-8"?>
<svg version="1.1" xmlns="http://www.w3.org/2000/svg" width="215" height="219">
<path d="M0 0 C4.94260387 2.12618811 9.73959693 4.46709224 14.53149414 6.90991211 C27.48464845 13.46679773 40.6842108 18.28954888 54.48266602 22.71508789 C72.90633863 28.67649811 72.90633863 28.67649811 78.36328125 35.8125 C81.25127475 43.7164822 81.51306923 51.85967416 81.50854492 60.17504883 C81.51190353 61.07538345 81.51526215 61.97571808 81.51872253 62.90333557 C81.52816616 65.85874844 81.5301723 68.81410426 81.53125 71.76953125 C81.5344671 73.83924889 81.53783151 75.9089663 81.54133606 77.97868347 C81.54731082 82.31009447 81.54917766 86.64148556 81.54858398 90.97290039 C81.54848244 96.50042593 81.56213376 102.0278228 81.57935619 107.55531788 C81.59051962 111.82863441 81.59250186 116.10192025 81.59197426 120.37524986 C81.59314786 122.41202933 81.59753453 124.44880975 81.60530663 126.48557472 C81.69921266 153.63518251 81.69921266 153.63518251 75.875 161.375 C70.56642612 166.42294622 64.86521702 166.96429928 57.78271484 166.92578125 C5.33140931 164.46993808 -48.19784247 139.95878282 -89.63671875 108.8125 C-90.19488281 108.39484375 -90.75304687 107.9771875 -91.328125 107.546875 C-106.25722055 96.24918107 -106.25722055 96.24918107 -107.76171875 86.875 C-108.43594549 80.91933046 -105.61996567 75.30650333 -101.984375 70.73461914 C-100.07451647 68.68751471 -98.10387877 66.74076033 -96.07421875 64.8125 C-95.00022827 63.76678833 -95.00022827 63.76678833 -93.90454102 62.69995117 C-89.28417626 58.24873171 -84.52215521 54.05311863 -79.48046875 50.08203125 C-75.93076178 47.24909204 -72.50159376 44.29145728 -69.07421875 41.3125 C-68.42775391 40.75095215 -67.78128906 40.1894043 -67.11523438 39.61083984 C-63.57140947 36.52308822 -60.05719465 33.40644691 -56.57421875 30.25 C-51.56797069 25.71541498 -46.4451402 21.32551327 -41.30078125 16.94921875 C-38.81427429 14.83095988 -36.35445715 12.68633286 -33.91015625 10.51953125 C-33.29881836 9.98239502 -32.68748047 9.44525879 -32.05761719 8.8918457 C-30.90129297 7.87495319 -29.75042369 6.85180656 -28.60644531 5.82104492 C-19.71663924 -1.95149976 -11.21631283 -4.79412272 0 0 Z " fill="#D9D9D9" transform="translate(118.63671875,37.1875)"/>
</svg>
