<?xml version="1.0" encoding="UTF-8"?>
<svg version="1.1" xmlns="http://www.w3.org/2000/svg" width="214" height="195">
<path d="M0 0 C6.18651361 4.20481738 11.83168013 9.13174732 17.49609375 14.00390625 C20.34245825 16.45052895 23.23601456 18.83222811 26.15234375 21.1953125 C33.39700132 27.09603359 40.44974378 33.21932471 47.52636719 39.31933594 C53.35320288 44.33942748 59.17719023 49.35154899 65.15234375 54.1953125 C70.32720463 58.39031807 75.33513532 62.7618419 80.34790039 67.14746094 C83.67701663 70.04444264 87.02672733 72.83534572 90.58984375 75.4453125 C93.71484375 77.7578125 93.71484375 77.7578125 94.71484375 79.7578125 C95.11689521 83.7783271 95.27981197 85.95631745 92.9140625 89.3125 C92.08519531 90.07820313 91.25632813 90.84390625 90.40234375 91.6328125 C89.03142578 92.90898437 89.03142578 92.90898437 87.6328125 94.2109375 C83.08400279 98.18125066 78.44589213 102.00725675 73.71484375 105.7578125 C72.94914063 106.39074219 72.1834375 107.02367188 71.39453125 107.67578125 C32.24922863 139.85454696 -27.00710662 172.07622845 -79.2421875 170.96484375 C-84.76368431 170.40530392 -88.87335454 168.597926 -92.66015625 164.5078125 C-98.76057371 156.6053747 -98.43616863 145.59385057 -98.43041992 136.00366211 C-98.43377853 135.17948792 -98.43713715 134.35531372 -98.44059753 133.50616455 C-98.45002004 130.80747935 -98.45204656 128.10885683 -98.453125 125.41015625 C-98.45634474 123.51078772 -98.45970933 121.61141943 -98.46321106 119.71205139 C-98.46918145 115.73714626 -98.47105323 111.76226281 -98.47045898 107.78735352 C-98.47035774 102.73677039 -98.48398018 97.68632904 -98.50123119 92.63577938 C-98.51244749 88.71225875 -98.51437523 84.78877129 -98.51384926 80.86523628 C-98.51501607 79.00563636 -98.51936321 77.1460352 -98.52718163 75.28645134 C-98.64622987 44.03534269 -98.64622987 44.03534269 -92.28515625 35.7578125 C-88.81262529 32.50375203 -85.46473534 30.81193201 -81.03515625 29.1328125 C-79.69530009 28.61070893 -78.35545736 28.0885709 -77.015625 27.56640625 C-74.52319061 26.60960005 -72.02799303 25.6608807 -69.52978516 24.71923828 C-55.24219721 19.31370036 -41.84176122 13.1538939 -28.53515625 5.640625 C-9.37237664 -5.09472781 -9.37237664 -5.09472781 0 0 Z " fill="#D9D9D9" transform="translate(110.28515625,18.2421875)"/>
</svg>
