<?xml version="1.0" encoding="UTF-8"?>
<svg version="1.1" xmlns="http://www.w3.org/2000/svg" width="183" height="196">
<path d="M0 0 C0.87790695 -0.00335861 1.7558139 -0.00671722 2.6603241 -0.01017761 C5.53031879 -0.01958939 8.40025455 -0.0216257 11.27026367 -0.02270508 C13.28749108 -0.02592422 15.30471826 -0.02928877 17.32194519 -0.03279114 C21.53885438 -0.03875783 25.75574314 -0.04063355 29.97265625 -0.04003906 C35.34523032 -0.03993753 40.71767199 -0.05359173 46.09021473 -0.07081127 C50.25380542 -0.08199214 54.4173647 -0.08395641 58.58096886 -0.08342934 C60.56027368 -0.08460021 62.53957956 -0.08897114 64.5188694 -0.0967617 C94.55290354 -0.20392473 94.55290354 -0.20392473 102.10229492 6.46948242 C107.13340867 12.00370755 107.08628879 17.63373269 106.91088867 24.83276367 C104.22467098 72.21809342 85.74366857 141.43656675 49.91088867 174.73901367 C45.08321427 178.1013469 39.211223 178.14184498 33.62573242 177.14526367 C25.65774323 173.90176577 19.09924043 167.661667 12.62573242 162.14526367 C11.59507286 161.27737451 10.56380833 160.41020335 9.53198242 159.54370117 C3.27507772 154.2800167 -2.93150177 148.95774516 -9.13647461 143.63305664 C-17.00161679 136.88682327 -24.87086537 130.15114181 -32.93676758 123.64526367 C-56.71265314 104.24914651 -56.71265314 104.24914651 -57.64770508 97.03588867 C-58.06459004 86.19687955 -53.6522673 77.09524286 -49.46557617 67.35473633 C-44.31746897 55.36040398 -40.26830913 43.23833121 -36.88208008 30.63354492 C-30.68600184 7.68294978 -30.68600184 7.68294978 -23.12426758 2.58276367 C-16.093215 -0.55140597 -7.56505533 -0.00426473 0 0 Z " fill="#D9D9D9" transform="translate(66.374267578125,8.854736328125)"/>
</svg>
